<svg width="164" height="15" viewBox="0 0 164 15" fill="none" xmlns="http://www.w3.org/2000/svg">
<path d="M9.45 0.805999C9.726 0.805999 9.93 0.817999 10.062 0.842C10.206 0.854 10.362 0.907999 10.53 1.004C10.71 1.1 10.836 1.262 10.908 1.49C10.98 1.718 11.016 2.024 11.016 2.408C11.016 2.792 10.98 3.098 10.908 3.326C10.836 3.554 10.71 3.716 10.53 3.812C10.35 3.896 10.188 3.95 10.044 3.974C9.912 3.986 9.702 3.992 9.414 3.992H3.906V5.81H7.452C7.74 5.81 7.95 5.822 8.082 5.846C8.226 5.858 8.388 5.912 8.568 6.008C8.88 6.188 9.036 6.662 9.036 7.43C9.036 8.27 8.808 8.768 8.352 8.924C8.16 8.984 7.854 9.014 7.434 9.014H3.906V12.416C3.906 12.704 3.894 12.914 3.87 13.046C3.858 13.178 3.804 13.334 3.708 13.514C3.54 13.838 3.072 14 2.304 14C1.464 14 0.972 13.772 0.828 13.316C0.756 13.124 0.72 12.818 0.72 12.398V2.39C0.72 1.778 0.834 1.364 1.062 1.148C1.29 0.919999 1.722 0.805999 2.358 0.805999H9.45ZM15.3669 11.336H20.2629C20.6589 11.336 20.9469 11.384 21.1269 11.48C21.3069 11.564 21.4269 11.702 21.4869 11.894C21.5469 12.086 21.5769 12.344 21.5769 12.668C21.5769 12.98 21.5469 13.232 21.4869 13.424C21.4269 13.616 21.3249 13.748 21.1809 13.82C20.9529 13.94 20.6409 14 20.2449 14H13.7649C12.9249 14 12.4329 13.772 12.2889 13.316C12.2169 13.124 12.1809 12.818 12.1809 12.398V2.39C12.1809 2.114 12.1869 1.91 12.1989 1.778C12.2229 1.634 12.2829 1.472 12.3789 1.292C12.5469 0.967999 13.0149 0.805999 13.7829 0.805999C14.6229 0.805999 15.1209 1.028 15.2769 1.472C15.3369 1.676 15.3669 1.988 15.3669 2.408V11.336ZM25.9314 10.814H31.4754C31.7514 10.814 31.9554 10.826 32.0874 10.85C32.2314 10.862 32.3934 10.916 32.5734 11.012C32.8974 11.18 33.0594 11.648 33.0594 12.416C33.0594 13.256 32.8374 13.748 32.3934 13.892C32.1894 13.964 31.8774 14 31.4574 14H24.3294C23.4894 14 22.9974 13.772 22.8534 13.316C22.7814 13.124 22.7454 12.818 22.7454 12.398V2.39C22.7454 1.778 22.8594 1.364 23.0874 1.148C23.3154 0.919999 23.7474 0.805999 24.3834 0.805999H31.4754C31.7514 0.805999 31.9554 0.817999 32.0874 0.842C32.2314 0.854 32.3934 0.907999 32.5734 1.004C32.8974 1.172 33.0594 1.64 33.0594 2.408C33.0594 3.248 32.8374 3.74 32.3934 3.884C32.1894 3.956 31.8774 3.992 31.4574 3.992H25.9314V5.81H29.4954C29.7714 5.81 29.9754 5.822 30.1074 5.846C30.2514 5.858 30.4134 5.912 30.5934 6.008C30.9174 6.176 31.0794 6.644 31.0794 7.412C31.0794 8.252 30.8514 8.744 30.3954 8.888C30.1914 8.96 29.8794 8.996 29.4594 8.996H25.9314V10.814ZM42.3419 7.322L45.9599 11.3C46.3679 11.756 46.5719 12.14 46.5719 12.452C46.5719 12.764 46.3379 13.13 45.8699 13.55C45.4139 13.97 45.0239 14.18 44.6999 14.18C44.3879 14.18 44.0219 13.94 43.6019 13.46L40.1819 9.536L36.7619 13.46C36.3299 13.94 35.9579 14.18 35.6459 14.18C35.3459 14.18 34.9559 13.97 34.4759 13.55C34.0079 13.118 33.7739 12.752 33.7739 12.452C33.7739 12.152 33.9839 11.768 34.4039 11.3L38.0219 7.322L34.4039 3.344C33.9839 2.9 33.7739 2.522 33.7739 2.21C33.7739 1.898 34.0079 1.532 34.4759 1.112C34.9439 0.679999 35.3339 0.463999 35.6459 0.463999C35.9699 0.463999 36.3419 0.704 36.7619 1.184L40.1819 5.108L43.6019 1.184C44.0339 0.704 44.3999 0.463999 44.6999 0.463999C45.0119 0.463999 45.4019 0.674 45.8699 1.094C46.3379 1.514 46.5719 1.886 46.5719 2.21C46.5719 2.534 46.3679 2.912 45.9599 3.344L42.3419 7.322ZM56.9617 6.926C57.6697 7.766 58.0237 8.708 58.0237 9.752C57.9997 10.952 57.5857 11.96 56.7817 12.776C55.9897 13.58 55.0237 13.982 53.8837 13.982H49.1497C48.3097 13.982 47.8177 13.754 47.6737 13.298C47.6017 13.094 47.5657 12.782 47.5657 12.362V2.372C47.5657 2.084 47.5717 1.874 47.5837 1.742C47.6077 1.61 47.6677 1.454 47.7637 1.274C47.9317 0.95 48.3997 0.788 49.1677 0.788H53.7037C54.8077 0.788 55.7317 1.172 56.4757 1.94C57.2557 2.72 57.6457 3.656 57.6457 4.748C57.6457 5.54 57.4177 6.266 56.9617 6.926ZM54.8377 9.572C54.8377 9.284 54.8017 9.056 54.7297 8.888C54.6697 8.72 54.5617 8.6 54.4057 8.528C54.1657 8.432 53.8297 8.384 53.3977 8.384C52.9657 8.384 52.6417 8.3 52.4257 8.132C52.2097 7.964 52.1017 7.622 52.1017 7.106C52.1017 6.578 52.2097 6.23 52.4257 6.062C52.6537 5.894 53.0257 5.81 53.5417 5.81C54.0217 5.81 54.3097 5.684 54.4057 5.432C54.4417 5.3 54.4597 5.084 54.4597 4.784C54.4597 4.484 54.3577 4.274 54.1537 4.154C53.9617 4.034 53.6677 3.974 53.2717 3.974H50.7517V10.796H53.7037C54.4597 10.796 54.8377 10.388 54.8377 9.572ZM65.3944 0.643999C67.1704 0.643999 68.7124 1.286 70.0204 2.57C71.3284 3.854 71.9824 5.45 71.9824 7.358C71.9824 9.254 71.3584 10.874 70.1104 12.218C68.8624 13.55 67.3264 14.216 65.5024 14.216C63.6784 14.216 62.1244 13.556 60.8404 12.236C59.5684 10.916 58.9324 9.344 58.9324 7.52C58.9324 6.524 59.1124 5.594 59.4724 4.73C59.8324 3.854 60.3124 3.122 60.9124 2.534C61.5124 1.946 62.2024 1.484 62.9824 1.148C63.7624 0.811999 64.5664 0.643999 65.3944 0.643999ZM62.1184 7.43C62.1184 8.498 62.4604 9.368 63.1444 10.04C63.8404 10.7 64.6144 11.03 65.4664 11.03C66.3184 11.03 67.0864 10.706 67.7704 10.058C68.4544 9.41 68.7964 8.54 68.7964 7.448C68.7964 6.356 68.4484 5.48 67.7524 4.82C67.0684 4.16 66.3004 3.83 65.4484 3.83C64.5964 3.83 63.8284 4.166 63.1444 4.838C62.4604 5.498 62.1184 6.362 62.1184 7.43ZM80.5568 7.322L84.1748 11.3C84.5828 11.756 84.7868 12.14 84.7868 12.452C84.7868 12.764 84.5528 13.13 84.0848 13.55C83.6288 13.97 83.2388 14.18 82.9148 14.18C82.6028 14.18 82.2368 13.94 81.8168 13.46L78.3968 9.536L74.9768 13.46C74.5448 13.94 74.1728 14.18 73.8608 14.18C73.5608 14.18 73.1708 13.97 72.6908 13.55C72.2228 13.118 71.9888 12.752 71.9888 12.452C71.9888 12.152 72.1988 11.768 72.6188 11.3L76.2368 7.322L72.6188 3.344C72.1988 2.9 71.9888 2.522 71.9888 2.21C71.9888 1.898 72.2228 1.532 72.6908 1.112C73.1588 0.679999 73.5488 0.463999 73.8608 0.463999C74.1848 0.463999 74.5568 0.704 74.9768 1.184L78.3968 5.108L81.8168 1.184C82.2488 0.704 82.6148 0.463999 82.9148 0.463999C83.2268 0.463999 83.6168 0.674 84.0848 1.094C84.5528 1.514 84.7868 1.886 84.7868 2.21C84.7868 2.534 84.5828 2.912 84.1748 3.344L80.5568 7.322ZM99.0633 0.805999C99.3393 0.805999 99.5433 0.817999 99.6753 0.842C99.8193 0.854 99.9753 0.907999 100.143 1.004C100.323 1.1 100.449 1.262 100.521 1.49C100.593 1.718 100.629 2.024 100.629 2.408C100.629 2.792 100.593 3.098 100.521 3.326C100.449 3.554 100.323 3.716 100.143 3.812C99.9633 3.896 99.8013 3.95 99.6573 3.974C99.5253 3.986 99.3153 3.992 99.0273 3.992H93.5193V5.81H97.0653C97.3533 5.81 97.5633 5.822 97.6953 5.846C97.8393 5.858 98.0013 5.912 98.1813 6.008C98.4933 6.188 98.6493 6.662 98.6493 7.43C98.6493 8.27 98.4213 8.768 97.9653 8.924C97.7733 8.984 97.4673 9.014 97.0473 9.014H93.5193V12.416C93.5193 12.704 93.5073 12.914 93.4833 13.046C93.4713 13.178 93.4173 13.334 93.3213 13.514C93.1533 13.838 92.6853 14 91.9173 14C91.0773 14 90.5853 13.772 90.4413 13.316C90.3693 13.124 90.3333 12.818 90.3333 12.398V2.39C90.3333 1.778 90.4473 1.364 90.6753 1.148C90.9033 0.919999 91.3353 0.805999 91.9713 0.805999H99.0633ZM111.892 11.768C112.072 12.2 112.162 12.512 112.162 12.704C112.162 13.16 111.79 13.544 111.046 13.856C110.662 14.024 110.35 14.108 110.11 14.108C109.882 14.108 109.69 14.054 109.534 13.946C109.39 13.826 109.282 13.706 109.21 13.586C109.09 13.358 108.622 12.272 107.806 10.328L107.248 10.364H104.98V12.398C104.98 12.674 104.968 12.884 104.944 13.028C104.932 13.16 104.878 13.316 104.782 13.496C104.614 13.82 104.146 13.982 103.378 13.982C102.538 13.982 102.046 13.76 101.902 13.316C101.83 13.112 101.794 12.8 101.794 12.38V2.39C101.794 2.114 101.8 1.91 101.812 1.778C101.836 1.634 101.896 1.472 101.992 1.292C102.16 0.967999 102.628 0.805999 103.396 0.805999H107.284C108.34 0.805999 109.366 1.19 110.362 1.958C110.842 2.33 111.238 2.834 111.55 3.47C111.862 4.106 112.018 4.814 112.018 5.594C112.018 6.95 111.568 8.066 110.668 8.942C110.932 9.578 111.34 10.52 111.892 11.768ZM104.98 7.178H107.284C107.632 7.178 107.98 7.046 108.328 6.782C108.676 6.518 108.85 6.122 108.85 5.594C108.85 5.066 108.676 4.67 108.328 4.406C107.98 4.13 107.62 3.992 107.248 3.992H104.98V7.178ZM119.166 0.643999C120.942 0.643999 122.484 1.286 123.792 2.57C125.1 3.854 125.754 5.45 125.754 7.358C125.754 9.254 125.13 10.874 123.882 12.218C122.634 13.55 121.098 14.216 119.274 14.216C117.45 14.216 115.896 13.556 114.612 12.236C113.34 10.916 112.704 9.344 112.704 7.52C112.704 6.524 112.884 5.594 113.244 4.73C113.604 3.854 114.084 3.122 114.684 2.534C115.284 1.946 115.974 1.484 116.754 1.148C117.534 0.811999 118.338 0.643999 119.166 0.643999ZM115.89 7.43C115.89 8.498 116.232 9.368 116.916 10.04C117.612 10.7 118.386 11.03 119.238 11.03C120.09 11.03 120.858 10.706 121.542 10.058C122.226 9.41 122.568 8.54 122.568 7.448C122.568 6.356 122.22 5.48 121.524 4.82C120.84 4.16 120.072 3.83 119.22 3.83C118.368 3.83 117.6 4.166 116.916 4.838C116.232 5.498 115.89 6.362 115.89 7.43ZM133.807 6.044H136.975C137.623 6.068 138.019 6.236 138.163 6.548C138.283 6.776 138.343 7.112 138.343 7.556V11.516C138.343 11.9 138.175 12.266 137.839 12.614C136.831 13.658 135.319 14.18 133.303 14.18C131.515 14.18 129.961 13.508 128.641 12.164C127.321 10.808 126.661 9.176 126.661 7.268C126.661 5.36 127.333 3.77 128.677 2.498C130.021 1.214 131.605 0.571999 133.429 0.571999C134.845 0.571999 136.183 1.04 137.443 1.976C137.767 2.216 137.929 2.486 137.929 2.786C137.929 3.074 137.791 3.41 137.515 3.794C137.047 4.43 136.621 4.748 136.237 4.748C136.009 4.748 135.643 4.586 135.139 4.262C134.635 3.926 134.035 3.758 133.339 3.758C132.427 3.758 131.617 4.082 130.909 4.73C130.201 5.366 129.847 6.206 129.847 7.25C129.847 8.282 130.207 9.164 130.927 9.896C131.647 10.616 132.463 10.976 133.375 10.976C134.035 10.976 134.629 10.868 135.157 10.652V8.69H133.735C133.363 8.69 133.099 8.642 132.943 8.546C132.787 8.45 132.685 8.312 132.637 8.132C132.589 7.94 132.565 7.688 132.565 7.376C132.565 7.052 132.589 6.794 132.637 6.602C132.697 6.41 132.799 6.278 132.943 6.206C133.159 6.098 133.447 6.044 133.807 6.044ZM146.657 6.044H149.825C150.473 6.068 150.869 6.236 151.013 6.548C151.133 6.776 151.193 7.112 151.193 7.556V11.516C151.193 11.9 151.025 12.266 150.689 12.614C149.681 13.658 148.169 14.18 146.153 14.18C144.365 14.18 142.811 13.508 141.491 12.164C140.171 10.808 139.511 9.176 139.511 7.268C139.511 5.36 140.183 3.77 141.527 2.498C142.871 1.214 144.455 0.571999 146.279 0.571999C147.695 0.571999 149.033 1.04 150.293 1.976C150.617 2.216 150.779 2.486 150.779 2.786C150.779 3.074 150.641 3.41 150.365 3.794C149.897 4.43 149.471 4.748 149.087 4.748C148.859 4.748 148.493 4.586 147.989 4.262C147.485 3.926 146.885 3.758 146.189 3.758C145.277 3.758 144.467 4.082 143.759 4.73C143.051 5.366 142.697 6.206 142.697 7.25C142.697 8.282 143.057 9.164 143.777 9.896C144.497 10.616 145.313 10.976 146.225 10.976C146.885 10.976 147.479 10.868 148.007 10.652V8.69H146.585C146.213 8.69 145.949 8.642 145.793 8.546C145.637 8.45 145.535 8.312 145.487 8.132C145.439 7.94 145.415 7.688 145.415 7.376C145.415 7.052 145.439 6.794 145.487 6.602C145.547 6.41 145.649 6.278 145.793 6.206C146.009 6.098 146.297 6.044 146.657 6.044ZM163.106 1.058C163.694 1.466 163.988 1.862 163.988 2.246C163.988 2.474 163.85 2.792 163.574 3.2L159.686 9.014V12.452C159.686 12.728 159.674 12.938 159.65 13.082C159.638 13.214 159.584 13.37 159.488 13.55C159.392 13.73 159.23 13.856 159.002 13.928C158.774 14 158.468 14.036 158.084 14.036C157.7 14.036 157.394 14 157.166 13.928C156.938 13.856 156.776 13.73 156.68 13.55C156.584 13.358 156.524 13.196 156.5 13.064C156.488 12.92 156.482 12.704 156.482 12.416V9.014L152.594 3.2C152.318 2.792 152.18 2.474 152.18 2.246C152.18 1.862 152.444 1.496 152.972 1.148C153.5 0.788 153.878 0.608 154.106 0.608C154.334 0.608 154.514 0.655999 154.646 0.751999C154.85 0.883999 155.066 1.13 155.294 1.49L158.084 5.954L160.874 1.49C161.102 1.13 161.3 0.896 161.468 0.788C161.636 0.668 161.828 0.608 162.044 0.608C162.272 0.608 162.626 0.758 163.106 1.058Z" fill="white"/>
</svg>
